<?xml version="1.0" encoding="UTF-8" standalone="no"?>
<!-- Created with Inkscape (http://www.inkscape.org/) -->

<svg
   width="57.207104"
   height="53.093506"
   viewBox="0 0 15.136046 14.047657"
   version="1.1"
   id="svg1"
   inkscape:version="1.3.2 (091e20ef0f, 2023-11-25)"
   sodipodi:docname="drawing.svg"
   xmlns:inkscape="http://www.inkscape.org/namespaces/inkscape"
   xmlns:sodipodi="http://sodipodi.sourceforge.net/DTD/sodipodi-0.dtd"
   xmlns="http://www.w3.org/2000/svg"
   xmlns:svg="http://www.w3.org/2000/svg">
  <sodipodi:namedview
     id="namedview1"
     pagecolor="#ffffff"
     bordercolor="#000000"
     borderopacity="0.25"
     inkscape:showpageshadow="2"
     inkscape:pageopacity="0.0"
     inkscape:pagecheckerboard="0"
     inkscape:deskcolor="#d1d1d1"
     inkscape:document-units="mm"
     inkscape:zoom="5.1766713"
     inkscape:cx="15.067598"
     inkscape:cy="13.135854"
     inkscape:window-width="1920"
     inkscape:window-height="1003"
     inkscape:window-x="0"
     inkscape:window-y="0"
     inkscape:window-maximized="1"
     inkscape:current-layer="layer1" />
  <defs
     id="defs1">
    <inkscape:path-effect
       effect="simplify"
       id="path-effect6"
       is_visible="true"
       lpeversion="1.3"
       threshold="17.2414"
       steps="1"
       smooth_angles="360"
       helper_size="0"
       simplify_individual_paths="false"
       simplify_just_coalesce="false" />
    <inkscape:path-effect
       effect="simplify"
       id="path-effect4"
       is_visible="true"
       lpeversion="1.3"
       threshold="17.2414"
       steps="1"
       smooth_angles="360"
       helper_size="0"
       simplify_individual_paths="false"
       simplify_just_coalesce="false" />
    <inkscape:path-effect
       effect="simplify"
       id="path-effect3"
       is_visible="true"
       lpeversion="1.3"
       threshold="17.2414"
       steps="1"
       smooth_angles="360"
       helper_size="0"
       simplify_individual_paths="false"
       simplify_just_coalesce="false" />
    <inkscape:path-effect
       effect="simplify"
       id="path-effect2"
       is_visible="true"
       lpeversion="1.3"
       threshold="17.2414"
       steps="1"
       smooth_angles="360"
       helper_size="0"
       simplify_individual_paths="false"
       simplify_just_coalesce="false" />
    <inkscape:path-effect
       effect="simplify"
       id="path-effect1"
       is_visible="true"
       lpeversion="1.3"
       threshold="17.2414"
       steps="1"
       smooth_angles="360"
       helper_size="0"
       simplify_individual_paths="false"
       simplify_just_coalesce="false" />
  </defs>
  <g
     inkscape:label="Layer 1"
     inkscape:groupmode="layer"
     id="layer1"
     transform="translate(-5.0515234,-5.1539136)">
    <path
       style="fill:#d4aa00;stroke-width:0.264583"
       d="m 5.5451123,12.210867 c 0.4889692,0.657936 1.0703682,1.237316 1.6057534,1.856807 0.2125228,0.245908 0.3803004,0.527692 0.517917,0.819837 0.1073419,0.227876 0.2232184,0.458337 0.4223547,0.624378 0.2224876,0.185511 0.4434065,0.37288 0.6405739,0.586232 0.1312693,0.142044 0.3055361,0.225994 0.4702125,0.327383 0.3482011,0.214383 0.6882741,0.441856 1.0050232,0.701633 0.448283,0.367653 0.870516,0.766142 1.287051,1.170523 0.128212,0.12447 0.164954,0.299495 0.260506,0.446112 0.102118,0.156692 0.156201,0.509137 0.334375,0.451493 0.182987,-0.0592 0.331008,-0.194845 0.499748,-0.286433 0.480133,-0.260606 0.98677,-0.467705 1.463739,-0.735548 0.75996,-0.426758 1.497498,-0.905519 2.146215,-1.489056 0.929234,-0.83587 1.653928,-1.869541 2.613761,-2.677552 0.342234,-0.288101 0.747426,-0.520411 1.013382,-0.880992 0.146238,-0.198268 0.212336,-0.449431 0.222494,-0.689452 0.0053,-0.125058 -0.03505,-0.503067 0.03679,-0.388742 0.07963,0.126724 0.149797,-0.02454 0.06171,-0.06607 -0.143259,-0.06753 -0.249843,-0.192567 -0.368941,-0.296879 C 19.287163,11.254844 18.799252,10.821904 18.318509,10.381247 17.934574,10.029325 17.609141,9.6142451 17.3813,9.1407809 17.089688,8.5347974 16.849015,7.8946434 16.431765,7.3582965 16.24115,7.1132728 16.086208,6.8452091 15.938425,6.5712367 15.696481,6.1227024 15.397422,5.7080771 15.137387,5.2676907 15.061484,5.1391433 14.94153,5.1027685 14.82435,5.2468045 14.528719,5.6101892 14.287516,6.0132153 14.034329,6.4062292 13.90681,6.6041732 13.83258,6.8280738 13.80695,7.0660823 c -0.02883,0.2677562 -0.194952,0.4963774 -0.361094,0.6953592 -0.102997,0.1233565 -0.155312,0.2694823 -0.212519,0.4221224 -0.08608,0.2296831 -0.346834,0.3463724 -0.442913,0.5671307 -0.04542,0.1043564 -0.07422,0.2154435 -0.157872,0.3312678 -0.257928,0.3571337 -0.556134,0.6841521 -0.869129,0.9967306 -0.126668,0.1265 -0.32973,0.101436 -0.454135,-0.01748 C 11.102093,9.8631667 10.93165,9.6293701 10.766998,9.3959217 10.490276,9.0035747 10.18221,8.6353195 9.8898687,8.2549509 9.6468903,7.9388087 9.5193059,7.5498778 9.2592196,7.2444065 8.8085891,6.715141 8.4019251,6.1406603 8.1184486,5.5030822 8.0698539,5.3937858 8.0061118,5.1724662 7.8921663,5.3791937 7.6651831,5.791002 7.6429073,6.270493 7.552517,6.7224431 7.5075184,6.9474356 7.3419001,7.1663409 7.3875803,7.3903491 7.4275529,7.5863685 7.2696336,7.7217118 7.217896,7.9004738 7.1030248,8.2973732 6.9464971,8.6834507 6.7217714,9.0319798 6.5609436,9.281409 6.3841248,9.521564 6.1555966,9.716507 6.011399,9.839513 5.9187098,10.00216 5.8276916,10.174143 c -0.093923,0.177473 -0.2658147,0.288448 -0.3803906,0.455826 -0.2128332,0.310916 -0.3193754,0.684246 -0.321856,1.062005 -0.00112,0.170296 -0.1657622,0.457178 0,0.5147 0.1455052,0.05049 0.3583289,-0.102957 0.4658494,0.05559 0.05867,0.08651 0.074328,0.192764 0.1201267,0.285423"
       id="path6"
       inkscape:path-effect="#path-effect6"
       inkscape:original-d="m 5.5451123,12.210867 c 0.3962043,0.539541 0.8763301,1.005756 1.3121079,1.512158 0.5262774,0.611569 0.4264363,0.500353 0.7458966,1.04198 0.1224405,0.20759 0.2061345,0.479873 0.3845283,0.652061 0.1538306,0.148478 0.3280537,0.275978 0.4857514,0.420265 0.1627105,0.148874 0.3173013,0.347964 0.5029213,0.470578 0.07076,0.04674 0.150404,0.0784 0.225606,0.117595 0.1908,0.123251 0.3869563,0.238581 0.5723998,0.369754 0.3238554,0.229077 0.8720044,0.688696 1.1449994,0.940956 0.198352,0.183286 0.59061,0.52908 0.763267,0.80679 0.02678,0.04308 0.03157,0.113699 0.05071,0.161318 0.02736,0.06806 0.308512,0.462022 0.355579,0.490943 0.03272,0.0201 0.357033,-0.203828 0.38932,-0.223011 0.389533,-0.231434 0.813987,-0.39611 1.214278,-0.604943 0.776182,-0.404934 1.497313,-0.865905 2.185782,-1.411733 0.880339,-0.697947 1.536676,-1.615706 2.324738,-2.403202 0.494473,-0.494117 1.075731,-0.891 1.578642,-1.377992 0.167946,-0.16263 0.212499,-0.442927 0.259547,-0.668432 0.02527,-0.121104 -0.02744,-0.25957 0,-0.380136 0.0061,-0.02688 0.01737,-0.05287 0.03194,-0.07627 0.0211,-0.03387 0.137889,0.189162 0.08765,-0.04632 -0.0079,-0.03687 -0.06571,-0.03761 -0.09503,-0.06129 -0.03427,-0.02768 -0.0612,-0.06359 -0.09483,-0.09204 C 19.623144,11.555683 19.30149,11.263776 18.964668,10.959253 18.428097,10.474138 17.80408,9.9922763 17.472874,9.3291016 17.223709,8.8301985 17.019059,8.3020013 16.744347,7.8167438 16.531981,7.4416168 16.199941,7.1112715 16.01582,6.7246518 15.905997,6.4940454 15.225675,5.2117206 14.975237,5.1310357 c -0.115406,-0.037181 -0.644348,0.8266435 -0.741704,0.9732997 -0.141704,0.2134618 -0.296209,0.4233317 -0.380934,0.6692307 -0.04647,0.1348703 -0.03109,0.2907826 -0.06928,0.4200662 -0.05773,0.1954237 -0.329656,0.5580394 -0.451012,0.7227374 -0.08413,0.1141794 -0.07208,0.2710067 -0.154131,0.3819327 -0.110125,0.1488728 -0.262865,0.2784922 -0.363565,0.4182692 -0.147077,0.204152 0.0061,0.03958 -0.06888,0.1840786 -0.138625,0.2672897 -0.800399,1.0973003 -1.066936,1.2336448 -0.27392,0.14012 -0.497206,-0.2059569 -0.642678,-0.387124 C 10.7894,9.4399125 10.568926,9.1153542 10.324762,8.8060153 10.169532,8.6093497 9.8242682,8.2029929 9.700253,7.9656836 9.5831527,7.7416058 9.4637824,7.5074425 9.3061416,7.3038398 9.1823957,7.1440145 9.0465382,6.9959844 8.9244087,6.8332619 8.6593314,6.4800799 8.4070316,6.1053963 8.213251,5.7074289 8.198691,5.6775254 8.0023371,5.2265259 7.9668813,5.2703922 7.7170549,5.5794825 7.6785199,6.1079736 7.6039156,6.4792804 7.5464619,6.765228 7.4765558,7.0623792 7.3956793,7.336383 7.3750047,7.4064312 7.4020399,7.4857284 7.3783094,7.5548013 7.355333,7.6216747 7.2991662,7.6734881 7.2742911,7.7396784 7.2105995,7.9091564 7.1605557,8.0867127 7.1017926,8.257374 6.9531433,8.689083 6.717557,9.0678256 6.4433428,9.4321216 6.2833027,9.6447365 6.0210699,9.7818103 5.8883126,10.020294 c -0.035614,0.06398 -0.045174,0.141506 -0.086649,0.201847 -0.08177,0.118966 -0.2149382,0.202939 -0.2950845,0.319243 -0.264392,0.383672 -0.3811341,0.688059 -0.3811341,1.15059 0,0.101354 -0.057877,0.425539 0,0.5147 0.028456,0.04384 0.346434,-0.05739 0.4196667,0.0042 0.09583,0.08059 0.1108731,0.224541 0.1663094,0.336811" />
  </g>
</svg>
