<?xml version="1.0" encoding="UTF-8" standalone="no"?>
<!-- Created with Inkscape (http://www.inkscape.org/) -->

<svg
   width="100"
   height="100"
   viewBox="0 0 26.458333 26.458333"
   version="1.1"
   id="svg1"
   inkscape:version="1.3.2 (091e20ef0f, 2023-11-25)"
   sodipodi:docname="player.svg"
   xmlns:inkscape="http://www.inkscape.org/namespaces/inkscape"
   xmlns:sodipodi="http://sodipodi.sourceforge.net/DTD/sodipodi-0.dtd"
   xmlns="http://www.w3.org/2000/svg"
   xmlns:svg="http://www.w3.org/2000/svg">
  <sodipodi:namedview
     id="namedview1"
     pagecolor="#ffffff"
     bordercolor="#000000"
     borderopacity="0.25"
     inkscape:showpageshadow="2"
     inkscape:pageopacity="0.0"
     inkscape:pagecheckerboard="true"
     inkscape:deskcolor="#d1d1d1"
     inkscape:document-units="mm"
     inkscape:zoom="2.3942164"
     inkscape:cx="102.32993"
     inkscape:cy="52.626821"
     inkscape:window-width="1920"
     inkscape:window-height="1003"
     inkscape:window-x="0"
     inkscape:window-y="0"
     inkscape:window-maximized="1"
     inkscape:current-layer="layer1" />
  <defs
     id="defs1">
    <inkscape:path-effect
       effect="simplify"
       id="path-effect19"
       is_visible="true"
       lpeversion="1.3"
       threshold="17.2414"
       steps="1"
       smooth_angles="360"
       helper_size="0"
       simplify_individual_paths="false"
       simplify_just_coalesce="false" />
    <inkscape:path-effect
       effect="simplify"
       id="path-effect18"
       is_visible="true"
       lpeversion="1.3"
       threshold="17.2414"
       steps="1"
       smooth_angles="360"
       helper_size="0"
       simplify_individual_paths="false"
       simplify_just_coalesce="false" />
    <inkscape:path-effect
       effect="simplify"
       id="path-effect17"
       is_visible="true"
       lpeversion="1.3"
       threshold="17.2414"
       steps="1"
       smooth_angles="360"
       helper_size="0"
       simplify_individual_paths="false"
       simplify_just_coalesce="false" />
    <inkscape:path-effect
       effect="spiro"
       id="path-effect11"
       is_visible="true"
       lpeversion="1" />
  </defs>
  <g
     inkscape:label="Layer 1"
     inkscape:groupmode="layer"
     id="layer1">
    <rect
       style="fill:#ff0000;stroke-width:0.264583"
       id="rect11"
       width="65.154373"
       height="40.526127"
       x="-19.39332"
       y="-2.297858" />
    <path
       style="fill:#280b0b;stroke-width:0.264583"
       d="m 2.6725136,6.1975893 c 1.7528192,0.3362628 3.4673005,0.8462932 5.1523422,1.4319667 0.8421373,0.2927035 1.7058649,0.5664037 2.4578042,1.0577791 0.358746,0.2344326 0.704397,0.5035622 0.965331,0.8448603 0.237417,0.3105381 0.437361,0.6606786 0.524081,1.0443056 0.0521,0.230468 0.0584,0.504912 -0.105132,0.690705 -0.109885,0.124847 -0.285027,0.160823 -0.442222,0.177903 -0.390339,0.04241 -0.786087,0.0086 -1.170609,-0.06243 C 9.3505567,11.252631 8.7063703,10.925446 8.0749977,10.602096 7.4612315,10.287762 6.8085234,10.02027 6.2834425,9.56378 5.0410296,8.4836621 3.9095405,7.2836059 2.6725136,6.1975893 Z"
       id="path17"
       inkscape:path-effect="#path-effect17"
       inkscape:original-d="m 2.6725136,6.1975893 c 1.6955082,0.3260691 3.3495086,0.7963847 4.9595391,1.3645317 1.2641816,0.4461039 2.5623143,0.8114347 3.5147153,1.8501685 0.341108,0.3720282 0.920781,1.3577435 0.520172,1.8549165 -0.255341,0.316889 -1.37121,0.172239 -1.7331845,0.09152 C 9.2813533,11.21323 8.7273774,10.938864 8.1336617,10.632209 7.5109328,10.310569 6.7885224,10.004506 6.2584559,9.5422243 5.0249788,8.4664845 3.9013066,7.2765091 2.6725136,6.1975893 Z" />
    <path
       style="fill:#280b0b;stroke-width:0.264583"
       d="m 15.438503,9.9333239 c 1.833924,-0.5448031 3.51357,-1.4794028 5.249364,-2.2636908 0.849386,-0.3837804 1.709893,-0.7596214 2.614324,-0.9903902 0.344885,-0.087999 0.685028,-0.1968764 0.99893,-0.3791427 0.10422,-0.060515 0.261289,-0.2824943 0.319156,-0.1763275 0.05785,0.1061416 0.0052,0.2384124 -0.02675,0.3461473 -0.200492,0.6764627 -0.527702,1.3048807 -0.838742,1.9348307 -0.177163,0.3588107 -0.361383,0.7151824 -0.594674,1.0426363 -0.232138,0.3258371 -0.466479,0.65204 -0.66333,1.000393 -0.214032,0.37876 -0.391905,0.793973 -0.704853,1.099629 -0.07504,0.07329 -0.157099,0.201297 -0.267745,0.173302 -0.115774,-0.02929 -0.231165,0.0078 -0.346238,0.02202 -0.484349,0.05974 -0.978842,-0.0079 -1.437702,-0.171584 -0.684217,-0.244144 -1.327305,-0.595157 -2.031363,-0.787641 -0.477003,-0.130408 -0.977944,-0.197809 -1.426269,-0.411457 -0.285992,-0.136288 -0.5164,-0.405407 -0.844111,-0.4387241 -0.320358,-0.03257 -0.59829,0.1654141 -0.899931,0.2343771 -0.396028,0.09054 -0.802518,-0.02398 -1.173245,-0.161712 C 13.121873,9.9155451 12.88525,9.8080565 12.643393,9.7136002"
       id="path18"
       inkscape:path-effect="#path-effect18"
       inkscape:original-d="m 15.438503,9.9333239 c 2.6754,-0.7954343 5.003495,-2.3993885 7.673062,-3.201318 0.366928,-0.1102241 0.754464,-0.1627643 1.084373,-0.3626088 0.0291,-0.017629 0.393905,-0.2680492 0.424339,-0.2456244 0.118526,0.087335 -0.234854,0.972993 -0.450239,1.4219446 -1.06228,2.2142249 -0.633628,1.2610714 -1.612746,2.7981317 -0.11567,0.181582 -0.619707,1.197772 -0.96264,1.367122 -0.05832,0.0288 -0.131025,-0.01106 -0.195118,0 -1.29674,0.223621 -1.952879,-0.301635 -3.167216,-0.761911 C 17.623532,10.71831 16.963881,10.639175 16.356681,10.404284 16.035875,10.280183 15.780263,9.9722743 15.438503,9.9333239 15.09862,9.8945876 14.782419,10.136902 14.443919,10.186287 13.84551,10.273591 13.186991,9.9247911 12.643393,9.7136002" />
    <path
       style="fill:#280b0b;stroke-width:0.264583"
       d="m 5.3929433,21.042105 c 0.5976974,-0.917538 1.330113,-1.762753 2.2286259,-2.396986 0.4349409,-0.307012 0.912206,-0.550722 1.4030537,-0.752394 0.2611556,-0.107299 0.5267418,-0.218552 0.8130529,-0.235856 0.2793012,-0.01688 0.5382362,-0.130601 0.8008022,-0.216687 1.353273,-0.443693 2.727552,-0.905008 4.160429,-0.972371 0.418086,-0.01966 0.844322,-0.04754 1.255369,0.03587 0.574741,0.11663 1.119984,0.344641 1.651424,0.586283 0.979546,0.445393 1.938279,0.940577 2.852552,1.508166 0.247377,0.153574 0.522712,0.313846 0.63243,0.601549 0.116982,0.306752 -0.0085,0.631564 -0.04311,0.943879 -0.0187,0.168649 -0.0098,0.351354 -0.115991,0.496749 -0.115081,0.157605 -0.259834,0.292137 -0.339235,0.476679 -0.100039,0.232509 -0.204484,0.514381 -0.457486,0.601986 -0.12324,0.04267 -0.236982,-0.0556 -0.328992,-0.123658 -0.295414,-0.218495 -0.478607,-0.554578 -0.612432,-0.890773 -0.06504,-0.163388 -0.08119,-0.340996 -0.05259,-0.514155 0.02585,-0.156551 -0.002,-0.31255 -0.04839,-0.463692 -0.179641,-0.585573 -0.436823,-1.159007 -0.826416,-1.63516 -0.332902,-0.406866 -0.828216,-0.653825 -1.341798,-0.74319 -0.788802,-0.137253 -1.588799,-0.03364 -2.383304,-0.03986 -1.071826,-0.0084 -2.173864,-0.08551 -3.209329,0.236964 -0.345252,0.10752 -0.664916,0.28275 -0.979974,0.456882 -0.5149968,0.284638 -1.055187,0.541525 -1.5082307,0.9183 -0.4845979,0.403016 -0.9626349,0.832939 -1.2993767,1.371885 -0.1724202,0.275954 -0.3683947,0.547117 -0.6557666,0.719694 -0.2084772,0.125198 -0.4358574,0.207173 -0.6638431,0.288641 -0.1424412,0.0509 -0.3171894,0.209141 -0.4492933,0.118965 C 5.7062885,21.304571 5.5536462,21.167983 5.3929433,21.042105 Z"
       id="path19"
       inkscape:path-effect="#path-effect19"
       inkscape:original-d="m 5.3929433,21.042105 c 0.6981843,-1.080122 1.6977346,-2.185195 2.8680632,-2.783455 0.4015086,-0.205247 0.8089407,-0.406641 1.2380502,-0.545208 0.2049216,-0.06617 0.4318473,-0.0429 0.6367233,-0.109214 1.865863,-0.603927 3.717616,-1.288025 5.736127,-1.125383 1.108185,0.08929 4.031717,1.672596 4.950906,2.289184 0.514382,0.345046 0.470447,0.798945 0.33714,1.315321 -0.04207,0.16296 -0.0038,0.305385 -0.07339,0.459736 -0.08452,0.187334 -0.248959,0.286752 -0.342752,0.46837 -0.147245,0.28512 -0.199736,0.543471 -0.508948,0.707519 -0.08762,0.04648 -0.21593,-0.05508 -0.281885,-0.09367 -0.33647,-0.196871 -0.644444,-0.751428 -0.716584,-1.127973 -0.03715,-0.193887 0.04903,-0.420731 0,-0.611687 -0.14326,-0.557989 -0.427055,-1.200194 -0.776587,-1.674907 -0.869439,-1.18082 -2.304383,-0.901342 -3.598461,-0.901342 -1.175494,0 -2.352031,-0.08796 -3.482772,0.251668 -0.439887,0.132123 -2.10276,1.074362 -2.4989791,1.410721 -0.3145195,0.267002 -0.672438,0.587882 -0.9341495,0.905227 C 7.408479,20.528126 7.4546295,20.907731 6.533866,21.205279 6.4696297,21.226038 5.9783307,21.490262 5.8751266,21.419822 5.7064907,21.304724 5.553671,21.16801 5.3929433,21.042105 Z" />
  </g>
</svg>
